<svg width="80" height="80" viewBox="0 0 80 80" fill="none" xmlns="http://www.w3.org/2000/svg">
<g filter="url(#filter0_dd_129_423)">
<rect x="8" y="8" width="64" height="64" rx="32" fill="url(#paint0_linear_129_423)"/>
<rect x="8" y="8" width="64" height="64" rx="32" fill="url(#paint1_linear_129_423)"/>
<path d="M38.983 55.4176C36.8154 55.4176 34.8865 55.0447 33.1961 54.299C31.5058 53.5533 30.1734 52.5192 29.199 51.1967C28.2245 49.8643 27.7124 48.3331 27.6627 46.603H33.5242C33.574 47.3984 33.8424 48.0945 34.3296 48.6911C34.8169 49.2876 35.4632 49.755 36.2686 50.093C37.074 50.4212 37.9738 50.5852 38.9681 50.5852C40.032 50.5852 40.9717 50.4013 41.787 50.0334C42.6123 49.6555 43.2536 49.1335 43.711 48.4673C44.1784 47.8011 44.407 47.0305 44.3971 46.1555C44.407 45.2706 44.1734 44.4851 43.6961 43.799C43.2188 43.1129 42.5328 42.576 41.6379 42.1882C40.743 41.8004 39.6691 41.6065 38.4163 41.6065H35.672V37.2067H38.4163C39.4504 37.2067 40.3602 37.0277 41.1457 36.6697C41.9312 36.3118 42.5477 35.8097 42.9951 35.1634C43.4426 34.5071 43.6613 33.7464 43.6514 32.8814C43.6613 32.0462 43.4724 31.3203 43.0846 30.7038C42.6968 30.0774 42.1549 29.5902 41.4589 29.2422C40.7728 28.8842 39.9674 28.7053 39.0427 28.7053C38.118 28.7053 37.2678 28.8743 36.4923 29.2124C35.7267 29.5405 35.1052 30.0078 34.6279 30.6143C34.1507 31.2209 33.8971 31.9418 33.8673 32.777H28.3041C28.3339 31.0469 28.8261 29.5305 29.7806 28.228C30.7451 26.9155 32.0328 25.8913 33.6436 25.1555C35.2544 24.4098 37.064 24.0369 39.0725 24.0369C41.1308 24.0369 42.9205 24.4197 44.4419 25.1854C45.9731 25.941 47.1563 26.9652 47.9916 28.2578C48.8367 29.5405 49.2593 30.9673 49.2593 32.5384C49.2693 34.2585 48.7572 35.7003 47.7231 36.8636C46.689 38.017 45.3367 38.7628 43.6663 39.1009V39.3395C45.8438 39.6378 47.5093 40.4283 48.6627 41.7109C49.8261 42.9936 50.4028 44.5845 50.3928 46.4837C50.3928 48.2038 49.9007 49.7401 48.9163 51.0923C47.9419 52.4347 46.5945 53.4936 44.8744 54.2692C43.1542 55.0348 41.1904 55.4176 38.983 55.4176Z" fill="white"/>
</g>
<defs>
<filter id="filter0_dd_129_423" x="0" y="0" width="80" height="80" filterUnits="userSpaceOnUse" color-interpolation-filters="sRGB">
<feFlood flood-opacity="0" result="BackgroundImageFix"/>
<feColorMatrix in="SourceAlpha" type="matrix" values="0 0 0 0 0 0 0 0 0 0 0 0 0 0 0 0 0 0 127 0" result="hardAlpha"/>
<feOffset/>
<feGaussianBlur stdDeviation="4"/>
<feComposite in2="hardAlpha" operator="out"/>
<feColorMatrix type="matrix" values="0 0 0 0 0.715625 0 0 0 0 0.728516 0 0 0 0 0.75 0 0 0 0.04 0"/>
<feBlend mode="normal" in2="BackgroundImageFix" result="effect1_dropShadow_129_423"/>
<feColorMatrix in="SourceAlpha" type="matrix" values="0 0 0 0 0 0 0 0 0 0 0 0 0 0 0 0 0 0 127 0" result="hardAlpha"/>
<feOffset dy="2"/>
<feGaussianBlur stdDeviation="1.5"/>
<feComposite in2="hardAlpha" operator="out"/>
<feColorMatrix type="matrix" values="0 0 0 0 0 0 0 0 0 0 0 0 0 0 0 0 0 0 0.02 0"/>
<feBlend mode="normal" in2="effect1_dropShadow_129_423" result="effect2_dropShadow_129_423"/>
<feBlend mode="normal" in="SourceGraphic" in2="effect2_dropShadow_129_423" result="shape"/>
</filter>
<linearGradient id="paint0_linear_129_423" x1="18.3333" y1="62" x2="119.667" y2="-35.3333" gradientUnits="userSpaceOnUse">
<stop/>
<stop offset="1" stop-color="#434343"/>
</linearGradient>
<linearGradient id="paint1_linear_129_423" x1="57.4933" y1="8" x2="15.0157" y2="59.3894" gradientUnits="userSpaceOnUse">
<stop stop-color="#010417"/>
<stop offset="1" stop-color="#2B333F"/>
</linearGradient>
</defs>
</svg>
