<svg width="80" height="80" viewBox="0 0 80 80" fill="none" xmlns="http://www.w3.org/2000/svg">
<g filter="url(#filter0_dd_129_412)">
<rect x="8" y="8" width="64" height="64" rx="32" fill="url(#paint0_linear_129_412)"/>
<rect x="8" y="8" width="64" height="64" rx="32" fill="url(#paint1_linear_129_412)"/>
<path d="M29.0315 55V50.8089L39.7105 40.5178C40.7048 39.5234 41.5301 38.6435 42.1863 37.8778C42.8525 37.1023 43.3547 36.3516 43.6927 35.6257C44.0308 34.8899 44.1998 34.1044 44.1998 33.2692C44.1998 32.3345 43.9811 31.5291 43.5436 30.853C43.116 30.1669 42.5294 29.6399 41.7836 29.272C41.0379 28.8942 40.1878 28.7053 39.2332 28.7053C38.2488 28.7053 37.3888 28.9091 36.653 29.3168C35.9172 29.7145 35.3454 30.2862 34.9378 31.032C34.54 31.7678 34.3412 32.6477 34.3412 33.6719H28.8227C28.8227 31.723 29.2652 30.0277 30.1501 28.5859C31.045 27.1342 32.2829 26.0156 33.8639 25.2301C35.4449 24.4347 37.2595 24.0369 39.3078 24.0369C41.3959 24.0369 43.2254 24.4197 44.7964 25.1854C46.3675 25.951 47.5905 27.005 48.4655 28.3473C49.3405 29.6896 49.778 31.2209 49.778 32.9411C49.778 34.0945 49.5542 35.228 49.1068 36.3416C48.6693 37.4453 47.8937 38.6733 46.7801 40.0256C45.6665 41.3778 44.1004 43.0036 42.0819 44.9027L37.0557 49.9737V50.1825H50.2105V55H29.0315Z" fill="white"/>
</g>
<defs>
<filter id="filter0_dd_129_412" x="0" y="0" width="80" height="80" filterUnits="userSpaceOnUse" color-interpolation-filters="sRGB">
<feFlood flood-opacity="0" result="BackgroundImageFix"/>
<feColorMatrix in="SourceAlpha" type="matrix" values="0 0 0 0 0 0 0 0 0 0 0 0 0 0 0 0 0 0 127 0" result="hardAlpha"/>
<feOffset/>
<feGaussianBlur stdDeviation="4"/>
<feComposite in2="hardAlpha" operator="out"/>
<feColorMatrix type="matrix" values="0 0 0 0 0.715625 0 0 0 0 0.728516 0 0 0 0 0.75 0 0 0 0.04 0"/>
<feBlend mode="normal" in2="BackgroundImageFix" result="effect1_dropShadow_129_412"/>
<feColorMatrix in="SourceAlpha" type="matrix" values="0 0 0 0 0 0 0 0 0 0 0 0 0 0 0 0 0 0 127 0" result="hardAlpha"/>
<feOffset dy="2"/>
<feGaussianBlur stdDeviation="1.5"/>
<feComposite in2="hardAlpha" operator="out"/>
<feColorMatrix type="matrix" values="0 0 0 0 0 0 0 0 0 0 0 0 0 0 0 0 0 0 0.02 0"/>
<feBlend mode="normal" in2="effect1_dropShadow_129_412" result="effect2_dropShadow_129_412"/>
<feBlend mode="normal" in="SourceGraphic" in2="effect2_dropShadow_129_412" result="shape"/>
</filter>
<linearGradient id="paint0_linear_129_412" x1="18.3333" y1="62" x2="119.667" y2="-35.3333" gradientUnits="userSpaceOnUse">
<stop/>
<stop offset="1" stop-color="#434343"/>
</linearGradient>
<linearGradient id="paint1_linear_129_412" x1="57.4933" y1="8" x2="15.0157" y2="59.3894" gradientUnits="userSpaceOnUse">
<stop stop-color="#010417"/>
<stop offset="1" stop-color="#2B333F"/>
</linearGradient>
</defs>
</svg>
